:SAMPLES-PER-SECOND 30
:FULLY-SPECIFIED
:DEGREES
338
root  67.8397 34.5486 -6.74295 -135.489 -9.44609 -176.837
RightUpLeg  -92.6263 -22.1804 47.8312
RightLeg  46.124 1.7562 1.62222
RightFoot  -5.75635 0.645361 -13.9397
RightToes  0.00048216 0.542163 -0.142577
Spine  70.0775 -4.63195 6.54839
Spine1  14.2385 1.44242 -6.2494
HEad  -36.3923 -5.29366 5.71866
LeftShoulder1  4.62208 -22.9401 -10.0974
LeftArm  -108.152 -62.7056 32.3127
LeftForeArm  13.6049 -39.4835 -8.37192
LeftHand  -0.25398 0.0180481 5.50724
RightShoulder  1.47609 10.9416 2.07153
RightArm  -72.5712 44.0385 -7.9199
RightForeArm  -26.7942 30.2755 7.90342
RightHand  1.26817 9.25435 9.48404
LeftUpLeg  -105.528 41.7521 -46.3312
LeftLeg  45.7715 1.90031 2.51191
LeftFoot  -4.16443 -0.0644718 1.42801
LeftToes  1.06246e-005 4.65855e-005 -8.18505e-006
339
root  67.8238 34.6812 -6.51926 -136.474 -10.3244 -176.945
RightUpLeg  -92.0731 -23.2556 48.2093
RightLeg  45.136 1.69827 1.5002
RightFoot  -5.54618 0.68642 -14.2043
RightToes  0.00048216 0.542163 -0.142577
Spine  69.667 -4.54524 6.47544
Spine1  14.6435 1.42673 -6.10073
HEad  -36.5092 -5.09176 4.65921
LeftShoulder1  4.67395 -23.4497 -9.93766
LeftArm  -108.872 -63.5271 30.8581
LeftForeArm  15.0997 -41.2022 -8.82005
LeftHand  -0.25398 0.0180481 5.50724
RightShoulder  1.67648 11.3766 3.25685
RightArm  -70.7639 42.2769 -5.79781
RightForeArm  -26.3286 33.2504 8.70014
RightHand  1.24372 8.042 10.1925
LeftUpLeg  -104.452 41.7165 -45.9512
LeftLeg  44.8789 1.55221 2.07155
LeftFoot  -3.01096 -0.145399 2.24328
LeftToes  1.06246e-005 4.65855e-005 -8.18505e-006
340
root  67.7399 34.8804 -6.21675 -137.867 -11.3189 -176.975
RightUpLeg  -91.2926 -24.8166 48.8321
RightLeg  43.6679 1.97741 1.70524
RightFoot  -4.7841 0.824057 -14.836
RightToes  0.00048216 0.542163 -0.142577
Spine  69.3028 -4.57458 6.33407
Spine1  14.7741 1.2341 -5.98196
HEad  -36.4145 -4.79496 3.98235
LeftShoulder1  4.68029 -23.7385 -9.75495
LeftArm  -105.458 -63.2604 29.3212
LeftForeArm  13.7064 -41.8471 -9.12681
LeftHand  -0.25398 0.0180481 5.50724
RightShoulder  1.79626 11.5486 4.00674
RightArm  -67.3583 40.8178 -2.71557
RightForeArm  -25.7113 36.1657 9.54118
RightHand  1.0429 6.7441 9.47611
LeftUpLeg  -102.418 41.6888 -44.7358
LeftLeg  43.6661 1.34619 1.78345
LeftFoot  -1.86115 -0.260677 3.27823
LeftToes  1.06246e-005 4.65855e-005 -8.18505e-006
341
root  67.6042 35.1339 -5.8471 -139.373 -12.3725 -177.095
RightUpLeg  -90.445 -26.6305 49.4446
RightLeg  41.6954 2.31099 1.90503
RightFoot  -3.50287 1.03699 -15.3712
RightToes  0.00048216 0.542163 -0.142577
Spine  68.769 -4.48464 6.06384
Spine1  14.4199 0.936118 -5.52508
HEad  -35.969 -4.61532 3.57725
LeftShoulder1  4.83014 -23.8106 -10.3101
LeftArm  -101.926 -63.6686 28.0072
LeftForeArm  12.4062 -41.348 -9.04736
LeftHand  -0.25398 0.0180481 5.50724
RightShoulder  1.9127 11.9919 4.46808
RightArm  -61.8953 38.4175 0.982616
RightForeArm  -27.2523 39.36 10.6543
RightHand  0.784156 5.67002 7.79194
LeftUpLeg  -99.6985 41.4361 -43.1937
LeftLeg  42.0929 1.50781 1.85584
LeftFoot  -0.946914 -0.406905 4.53488
LeftToes  1.06246e-005 4.65855e-005 -8.18505e-006
342
root  67.4324 35.4294 -5.44235 -140.869 -13.4334 -177.324
RightUpLeg  -89.5446 -28.5818 50.0154
RightLeg  39.2834 2.58528 1.98107
RightFoot  -2.1706 1.24354 -15.5713
RightToes  0.00048216 0.542163 -0.142577
Spine  67.7515 -4.10026 5.73225
Spine1  14.1823 0.783978 -4.66299
HEad  -35.6275 -4.78561 2.88381
LeftShoulder1  5.03307 -24.0673 -10.9381
LeftArm  -98.1839 -64.8269 24.9352
LeftForeArm  12.2273 -40.8216 -8.88459
LeftHand  -0.25398 0.0180481 5.50724
RightShoulder  2.03551 12.1951 5.17327
RightArm  -55.61 35.1097 4.63254
RightForeArm  -30.8418 43.2342 12.2433
RightHand  0.522256 4.79742 5.56547
LeftUpLeg  -96.6031 41.0377 -41.7518
LeftLeg  40.145 1.83608 2.04851
LeftFoot  -0.0997416 -0.567671 5.76911
LeftToes  1.06246e-005 4.65855e-005 -8.18505e-006
343
root  67.2267 35.7731 -5.0274 -142.565 -14.575 -177.521
RightUpLeg  -88.3747 -30.8171 50.6274
RightLeg  36.4204 3.1178 2.19572
RightFoot  -0.826773 1.46 -15.7983
RightToes  0.00048216 0.542163 -0.142577
Spine  66.4791 -3.79263 5.43422
Spine1  14.3005 0.713477 -4.12844
HEad  -35.6373 -4.78249 1.55907
LeftShoulder1  5.09235 -24.3072 -10.9953
LeftArm  -90.661 -65.3227 18.7777
LeftForeArm  11.3599 -41.0871 -9.02901
LeftHand  -0.25398 0.0180481 5.50724
RightShoulder  2.1946 11.7863 6.73721
RightArm  -49.575 32.0243 8.03751
RightForeArm  -34.1492 47.5382 14.2482
RightHand  0.277761 4.03213 3.08221
LeftUpLeg  -92.98 40.7419 -40.1922
LeftLeg  37.7218 1.90305 1.9602
LeftFoot  0.925684 -0.72045 6.64646
LeftToes  1.06246e-005 4.65855e-005 -8.18505e-006
344
root  66.9881 36.1664 -4.61331 -144.61 -15.8907 -177.691
RightUpLeg  -86.7963 -33.491 51.1212
RightLeg  33.1117 3.9734 2.53323
RightFoot  0.867713 1.7281 -15.9802
RightToes  0.00048216 0.542163 -0.142577
Spine  65.3289 -3.8418 5.17151
Spine1  14.3539 0.475483 -4.1135
HEad  -35.6593 -3.96712 -0.492112
LeftShoulder1  5.16961 -24.0725 -11.4804
LeftArm  -78.6043 -64.7146 10.3134
LeftForeArm  9.12448 -42.3164 -9.59502
LeftHand  -0.25398 0.0180481 5.50724
RightShoulder  2.42409 11.2873 9.01824
RightArm  -43.9861 29.1337 11.4348
RightForeArm  -35.2543 51.9888 16.6463
RightHand  0.0813353 3.3564 0.780965
LeftUpLeg  -88.5209 40.5096 -38.1729
LeftLeg  34.7945 1.83699 1.73797
LeftFoot  2.00707 -0.869332 7.31469
LeftToes  1.06246e-005 4.65855e-005 -8.18505e-006
345
root  66.7266 36.6009 -4.21156 -146.892 -17.4398 -177.991
RightUpLeg  -84.8616 -36.6139 51.2789
RightLeg  29.3808 4.64212 2.5907
RightFoot  2.81772 1.93954 -15.3615
RightToes  0.00048216 0.542163 -0.142577
Spine  64.0733 -3.84719 4.98174
Spine1  14.467 0.215311 -3.67192
HEad  -35.6426 -2.58845 -3.3958
LeftShoulder1  5.59431 -23.9449 -13.2748
LeftArm  -64.9811 -63.202 0.426818
LeftForeArm  7.39319 -44.5831 -10.5384
LeftHand  -0.25398 0.0180481 5.50724
RightShoulder  2.64587 10.8705 11.2615
RightArm  -39.2273 25.2473 14.679
RightForeArm  -33.6019 56.851 19.8576
RightHand  -0.0538839 2.7824 -1.02827
LeftUpLeg  -83.129 40.061 -35.679
LeftLeg  31.4117 2.21716 1.81013
LeftFoot  3.04985 -1.06194 8.2444
LeftToes  1.06246e-005 4.65855e-005 -8.18505e-006
346
root  66.4493 37.0712 -3.83907 -149.269 -19.2769 -178.421
RightUpLeg  -83.1411 -40.2649 51.9368
RightLeg  25.1684 5.48306 2.37235
RightFoot  4.66451 2.01864 -14.0423
RightToes  0.00048216 0.542163 -0.142577
Spine  62.6677 -3.73916 4.80072
Spine1  14.5086 -0.0547485 -2.78347
HEad  -35.6854 -0.642448 -6.95256
LeftShoulder1  6.34187 -23.9497 -16.2364
LeftArm  -52.0109 -60.4606 -9.68051
LeftForeArm  7.08007 -47.7292 -11.8407
LeftHand  -0.25398 0.0180481 5.50724
RightShoulder  2.88542 10.7189 13.3425
RightArm  -35.6615 19.9713 17.6166
RightForeArm  -29.0466 62.2027 24.6042
RightHand  -0.146482 2.19167 -2.4685
LeftUpLeg  -76.9923 39.3591 -32.9974
LeftLeg  27.4751 2.75376 1.90288
LeftFoot  4.4185 -1.30582 9.21843
LeftToes  1.06246e-005 4.65855e-005 -8.18505e-006
347
root  66.1452 37.5593 -3.51038 -151.675 -21.3999 -178.839
RightUpLeg  -79.1309 -43.9694 49.7368
RightLeg  20.3304 4.55859 2.79498
RightFoot  6.60088 2.10484 -12.9713
RightToes  0.00048216 0.542163 -0.142577
Spine  61.1193 -3.56529 4.62575
Spine1  14.332 -0.315336 -1.75676
HEad  -35.9025 1.76991 -10.9053
LeftShoulder1  7.33768 -23.764 -20.3406
LeftArm  -40.4389 -56.287 -18.0663
LeftForeArm  7.90351 -51.5285 -13.5774
LeftHand  -0.25398 0.0180481 5.50724
RightShoulder  3.18504 10.6498 15.7755
RightArm  -33.1515 13.9389 19.8572
RightForeArm  -21.3231 67.515 31.6523
RightHand  -0.202147 1.3952 -3.62209
LeftUpLeg  -70.7098 38.8048 -30.844
LeftLeg  22.9331 2.02974 1.40109
LeftFoot  6.00225 -1.46472 9.35208
LeftToes  1.06246e-005 4.65855e-005 -8.18505e-006
348
root  65.7959 38.0162 -3.23072 -153.957 -23.7328 -179.301
RightUpLeg  -62.3256 -42.7817 29.4883
RightLeg  14.1927 -9.73378 5.58789
RightFoot  8.96604 2.16417 -11.7023
RightToes  0.00048216 0.542163 -0.142577
Spine  59.3892 -3.31295 4.35599
Spine1  13.6281 -0.572915 -0.715945
HEad  -36.0507 4.6766 -14.9409
LeftShoulder1  8.47007 -23.1312 -25.5058
LeftArm  -30.4322 -50.7912 -24.1054
LeftForeArm  9.83638 -55.6555 -15.7914
LeftHand  -0.25398 0.0180481 5.50724
RightShoulder  3.55015 10.4921 18.8854
RightArm  -31.1642 7.60524 21.0446
RightForeArm  -9.92424 72.0981 41.8078
RightHand  -0.20055 0.302696 -4.12642
LeftUpLeg  -63.839 37.8406 -27.8059
LeftLeg  18.6197 2.18126 0.41522
LeftFoot  5.99953 -1.35079 8.58648
LeftToes  1.06246e-005 4.65855e-005 -8.18505e-006
349
root  65.3989 38.4009 -2.99363 -155.936 -26.2679 -179.996
RightUpLeg  -42.1772 -31.9984 3.37327
RightLeg  5.71289 -32.8123 10.8444
RightFoot  11.2818 1.90019 -9.09002
RightToes  0.00048216 0.542163 -0.142577
Spine  57.3664 -2.94058 3.82452
Spine1  12.379 -0.8447 0.380377
HEad  -35.8763 8.2094 -18.7177
LeftShoulder1  9.52314 -22.3001 -30.7516
LeftArm  -22.8127 -43.8916 -27.9731
LeftForeArm  12.8347 -59.7694 -18.5035
LeftHand  -0.25398 0.0180481 5.50724
RightShoulder  3.88755 10.2136 22.0693
RightArm  -29.3893 0.890287 21.5279
RightForeArm  5.72938 75.5215 55.9388
RightHand  -0.145286 -1.11475 -3.7197
LeftUpLeg  -54.5349 34.3486 -19.8348
LeftLeg  16.1787 10.4762 -0.496875
LeftFoot  2.26641 -0.972509 8.04533
LeftToes  1.06246e-005 4.65855e-005 -8.18505e-006
